<svg xmlns="http://www.w3.org/2000/svg" viewBox="0 0 16 16"><defs><style>.af08d21e-c081-47be-bf2f-1b357a95359f{fill:none;stroke:#fff;stroke-miterlimit:10;stroke-width:1.71px;}</style></defs><title>icon</title><g id="b87bfc48-a2f3-41ec-a026-926e730d8fe3" data-name="圖層 2"><path class="af08d21e-c081-47be-bf2f-1b357a95359f" d="M7.67,1.47,1.39,6.71a.52.52,0,0,0-.18.39v7.17a.51.51,0,0,0,.51.51H5.23a.51.51,0,0,0,.51-.51V10.76a.5.5,0,0,1,.5-.51H9.76a.5.5,0,0,1,.5.51v3.51a.51.51,0,0,0,.51.51h3.51a.51.51,0,0,0,.51-.51V7.1a.52.52,0,0,0-.18-.39L8.33,1.47A.51.51,0,0,0,7.67,1.47Z"/></g></svg>