<svg id="eb79c24d-2979-4e46-b9e8-e70d4b4cc889" data-name="圖層 1" xmlns="http://www.w3.org/2000/svg" viewBox="0 0 16 16"><defs><style>.f627d0c8-5148-4867-8b9c-a56b15579686{fill:#d8c270;}</style></defs><title>icon</title><path class="f627d0c8-5148-4867-8b9c-a56b15579686" d="M8,15.9A7.9,7.9,0,1,1,15.9,8,7.9,7.9,0,0,1,8,15.9Zm0-14A6.1,6.1,0,1,0,14.1,8,6.11,6.11,0,0,0,8,1.9Z"/><rect class="f627d0c8-5148-4867-8b9c-a56b15579686" x="7.75" y="3.54" width="2.49" height="7.65" rx="0.37" transform="translate(8.93 18.98) rotate(-129)"/><path class="f627d0c8-5148-4867-8b9c-a56b15579686" d="M4.33,11.41,6,11.15a.25.25,0,0,0,.15-.4L5.09,9.43a.24.24,0,0,0-.42.07l-.61,1.58A.24.24,0,0,0,4.33,11.41Z"/></svg>