<svg xmlns="http://www.w3.org/2000/svg" viewBox="0 0 16 16"><defs><style>.a290a1e2-5c75-499c-a5da-f11b74ab859e{fill:#fff;}</style></defs><title>icon</title><g id="abe4aac3-427e-4c54-8613-e31b59b9c8d4" data-name="圖層 2"><path class="a290a1e2-5c75-499c-a5da-f11b74ab859e" d="M7,13.4A6.44,6.44,0,1,1,13.4,7,6.45,6.45,0,0,1,7,13.4ZM7,2.33A4.64,4.64,0,1,0,11.6,7,4.64,4.64,0,0,0,7,2.33Z"/><path class="a290a1e2-5c75-499c-a5da-f11b74ab859e" d="M14.57,15.47a.93.93,0,0,1-.64-.26l-3.45-3.46a.9.9,0,0,1,1.27-1.27l3.46,3.46a.9.9,0,0,1,0,1.27A.93.93,0,0,1,14.57,15.47Z"/></g></svg>