<svg id="edb7d2e2-94f6-4a6b-950a-acf3282df297" data-name="圖層 1" xmlns="http://www.w3.org/2000/svg" viewBox="0 0 16 16"><defs><style>.bfc7d196-d184-4cd1-a0cb-e566d2963da6{fill:#d8c270;}</style></defs><title>icon</title><path class="bfc7d196-d184-4cd1-a0cb-e566d2963da6" d="M7,13.4A6.44,6.44,0,1,1,13.4,7,6.45,6.45,0,0,1,7,13.4ZM7,2.33A4.64,4.64,0,1,0,11.6,7,4.64,4.64,0,0,0,7,2.33Z"/><path class="bfc7d196-d184-4cd1-a0cb-e566d2963da6" d="M14.57,15.47a.89.89,0,0,1-.63-.26l-3.46-3.46a.9.9,0,0,1,1.27-1.27l3.46,3.46a.9.9,0,0,1,0,1.27A.93.93,0,0,1,14.57,15.47Z"/></svg>