<svg xmlns="http://www.w3.org/2000/svg" viewBox="0 0 16 16"><defs><style>.ff15041f-e283-4b84-bd5f-5fb9d5649e09{fill:#fff;}</style></defs><title>icon</title><g id="a0bf346a-17fe-49d8-860a-9374419888c6" data-name="圖層 2"><path class="ff15041f-e283-4b84-bd5f-5fb9d5649e09" d="M8,15.9A7.9,7.9,0,1,1,15.9,8,7.9,7.9,0,0,1,8,15.9Zm0-14A6.1,6.1,0,1,0,14.1,8,6.11,6.11,0,0,0,8,1.9Z"/><rect class="ff15041f-e283-4b84-bd5f-5fb9d5649e09" x="7.75" y="3.54" width="2.49" height="7.65" rx="0.37" transform="translate(8.93 18.98) rotate(-129)"/><path class="ff15041f-e283-4b84-bd5f-5fb9d5649e09" d="M4.33,11.41,6,11.15a.25.25,0,0,0,.15-.4L5.09,9.43a.24.24,0,0,0-.42.07l-.61,1.58A.24.24,0,0,0,4.33,11.41Z"/></g></svg>