<svg xmlns="http://www.w3.org/2000/svg" viewBox="0 0 16 16"><defs><style>.f2b5aeb4-45c0-45cb-86f1-fa0d6623f9bc{fill:#fff;}</style></defs><title>icon</title><g id="ed620352-6819-40c6-8390-2fa93549c6e5" data-name="圖層 2"><path class="f2b5aeb4-45c0-45cb-86f1-fa0d6623f9bc" d="M8,15.9A7.9,7.9,0,1,1,15.9,8,7.9,7.9,0,0,1,8,15.9Zm0-14A6.1,6.1,0,1,0,14.1,8,6.11,6.11,0,0,0,8,1.9Z"/><circle class="f2b5aeb4-45c0-45cb-86f1-fa0d6623f9bc" cx="7.78" cy="4.37" r="1.2"/><path class="f2b5aeb4-45c0-45cb-86f1-fa0d6623f9bc" d="M9.72,11.06H9.11V6.26A.29.29,0,0,0,8.81,6H6.74a.3.3,0,0,0-.3.29V7.43a.27.27,0,0,0,.27.27A.27.27,0,0,1,7,8v3.09h-.7a.28.28,0,0,0-.28.28v1.21a.28.28,0,0,0,.28.28H9.72a.28.28,0,0,0,.28-.28V11.34A.28.28,0,0,0,9.72,11.06Z"/></g></svg>