<svg id="b541eb9f-cf41-41e2-838e-7aa4e93d8067" data-name="圖層 1" xmlns="http://www.w3.org/2000/svg" viewBox="0 0 16 16"><defs><style>.b2cfd1bb-051d-44d4-b225-f4bae8261527{fill:none;stroke:#d8c270;stroke-miterlimit:10;stroke-width:1.71px;}</style></defs><title>icon</title><path class="b2cfd1bb-051d-44d4-b225-f4bae8261527" d="M7.67,1.47,1.39,6.71a.52.52,0,0,0-.18.39v7.17a.51.51,0,0,0,.51.51H5.23a.51.51,0,0,0,.51-.51V10.76a.5.5,0,0,1,.5-.51H9.76a.5.5,0,0,1,.5.51v3.51a.51.51,0,0,0,.51.51h3.51a.51.51,0,0,0,.51-.51V7.1a.52.52,0,0,0-.18-.39L8.33,1.47A.51.51,0,0,0,7.67,1.47Z"/></svg>