<svg id="a4645be5-3f99-41a5-91d8-e31b9dc5145e" data-name="圖層 1" xmlns="http://www.w3.org/2000/svg" viewBox="0 0 16 16"><defs><style>.b19f0031-bf1c-4120-9d23-59967f0f020d{fill:#d8c270;}</style></defs><title>icon</title><path class="b19f0031-bf1c-4120-9d23-59967f0f020d" d="M8,15.9A7.9,7.9,0,1,1,15.9,8,7.9,7.9,0,0,1,8,15.9Zm0-14A6.1,6.1,0,1,0,14.1,8,6.11,6.11,0,0,0,8,1.9Z"/><circle class="b19f0031-bf1c-4120-9d23-59967f0f020d" cx="7.78" cy="4.37" r="1.2"/><path class="b19f0031-bf1c-4120-9d23-59967f0f020d" d="M9.72,11.06H9.11V6.26A.29.29,0,0,0,8.81,6H6.74a.3.3,0,0,0-.3.29V7.43a.27.27,0,0,0,.27.27A.27.27,0,0,1,7,8v3.09h-.7a.28.28,0,0,0-.28.28v1.21a.28.28,0,0,0,.28.28H9.72a.28.28,0,0,0,.28-.28V11.34A.28.28,0,0,0,9.72,11.06Z"/></svg>